<svg fill="#000000" xmlns="http://www.w3.org/2000/svg"  viewBox="0 0 64 64" width="64px" height="64px"><path d="M 27.234375 0.59179688 C 25.136289 0.61927734 23.005391 1.9554687 21.150391 4.4492188 C 19.190391 7.0892187 17.719531 10.749063 17.019531 14.789062 C 15.789531 15.179063 14.740156 15.5 13.910156 15.75 C 12.700156 16.12 12.229531 16.269609 12.019531 16.349609 C 10.039531 16.969609 9.7307031 17.330234 9.4707031 19.240234 C 9.3007031 20.410234 5.1797656 52.269141 5.0097656 53.619141 C 4.9397656 54.149141 5.2903125 54.640469 5.8203125 54.730469 L 39.220703 60.980469 C 39.280703 60.990469 39.340391 61 39.400391 61 L 39.5 61 C 39.57 61 39.650703 60.990469 39.720703 60.980469 L 57.839844 57.060547 C 58.359844 56.950547 58.699141 56.459453 58.619141 55.939453 C 58.559141 55.509453 52.320234 13.319453 52.240234 12.689453 C 52.230234 12.579453 52.200156 12.480625 52.160156 12.390625 C 51.930156 11.880625 51.520469 11.520078 50.980469 11.330078 C 50.890469 11.300078 50.779687 11.289297 50.679688 11.279297 C 50.459688 11.269297 48.080391 11.100703 46.400391 10.970703 C 45.560391 10.120703 43.450156 8.0307813 43.160156 7.8007812 C 42.770156 7.4107813 42.200234 7.1898438 41.740234 7.3398438 C 41.400234 7.3298438 41.120469 7.3899219 40.980469 7.4199219 C 40.800469 7.4699219 40.409063 7.5892188 39.289062 7.9492188 C 38.309062 4.4092187 36.490625 2.2496094 34.140625 1.8496094 C 33.130625 1.6796094 32.109141 1.8505469 31.119141 2.3105469 C 30.259141 1.4205469 29.250859 0.86015625 28.130859 0.66015625 C 27.833359 0.61015625 27.534102 0.58787109 27.234375 0.59179688 z M 27.1875 2.5996094 C 27.391934 2.5920703 27.591563 2.605625 27.789062 2.640625 C 28.359063 2.740625 28.900391 3.0192187 29.400391 3.4492188 C 27.260391 5.2592188 25.339063 8.4808594 24.039062 12.630859 L 23.460938 12.810547 C 23.450937 12.820547 23.439688 12.820313 23.429688 12.820312 L 23.25 12.880859 L 19.189453 14.119141 C 19.889453 10.789141 21.14 7.810625 22.75 5.640625 C 24.17625 3.733125 25.756465 2.6523828 27.1875 2.5996094 z M 33.453125 3.7851562 C 33.572812 3.7879688 33.693047 3.8003125 33.810547 3.8203125 C 35.330547 4.0803125 36.630859 5.7890625 37.380859 8.5390625 L 34.089844 9.5507812 C 33.799844 7.3407813 33.199375 5.4404687 32.359375 3.9804688 C 32.726875 3.8454687 33.094062 3.7767188 33.453125 3.7851562 z M 30.640625 5.0507812 C 31.380625 6.3507813 31.910391 8.1003906 32.150391 10.150391 L 26.419922 11.910156 C 27.549922 8.8601562 29.070625 6.4307812 30.640625 5.0507812 z M 41.830078 9.3496094 C 41.860078 9.3596094 41.889922 9.3591406 41.919922 9.3691406 C 42.349922 9.7691406 43.88 11.280391 45.25 12.650391 C 45.42 12.820391 45.640859 12.919453 45.880859 12.939453 C 47.550859 13.059453 49.500781 13.209766 50.300781 13.259766 C 50.820781 16.859766 55.26 46.910547 56.5 55.310547 L 39.5 58.980469 L 39.400391 58.980469 L 7.109375 52.939453 C 7.809375 47.529453 11.299219 20.569531 11.449219 19.519531 C 11.499219 19.199531 11.559609 18.720859 11.599609 18.630859 C 11.709609 18.540859 12.250234 18.370703 12.740234 18.220703 C 12.870234 18.170703 13.62 17.929922 14.5 17.669922 C 15.12 17.479922 15.870703 17.250469 16.720703 16.980469 C 17.100703 16.860469 17.509687 16.729609 17.929688 16.599609 L 18.810547 16.330078 L 23.5 14.890625 L 23.830078 14.789062 C 24.040078 14.729062 24.250938 14.659609 24.460938 14.599609 L 25.660156 14.230469 L 32.589844 12.109375 L 34.240234 11.599609 L 39.740234 9.9101562 C 40.630234 9.6201563 41.230391 9.4308594 41.400391 9.3808594 C 41.410391 9.3808594 41.419687 9.3791406 41.429688 9.3691406 C 41.519688 9.3491406 41.700078 9.3296094 41.830078 9.3496094 z M 40.871094 11.154297 C 40.326094 11.135297 39.851219 11.554469 39.824219 12.105469 C 39.797219 12.657469 40.222437 13.125344 40.773438 13.152344 L 42.771484 13.25 C 42.787484 13.251 42.803312 13.251953 42.820312 13.251953 C 43.350313 13.251953 43.793312 12.833828 43.820312 12.298828 C 43.847312 11.747828 43.420141 11.278953 42.869141 11.251953 L 40.871094 11.154297 z M 40.634766 16.03125 C 40.086766 16.00425 39.613891 16.430422 39.587891 16.982422 C 39.561891 17.533422 39.985109 18.002297 40.537109 18.029297 L 42.535156 18.126953 C 42.551156 18.127953 42.568937 18.128906 42.585938 18.128906 C 43.115938 18.128906 43.556031 17.710781 43.582031 17.175781 C 43.608031 16.624781 43.184812 16.155906 42.632812 16.128906 L 40.634766 16.03125 z M 40.398438 20.908203 C 39.845438 20.889203 39.378563 21.307375 39.351562 21.859375 C 39.325563 22.410375 39.750734 22.87925 40.302734 22.90625 L 42.300781 23.003906 C 42.316781 23.004906 42.332609 23.005859 42.349609 23.005859 C 42.878609 23.005859 43.321656 22.588734 43.347656 22.052734 C 43.373656 21.501734 42.948484 21.032859 42.396484 21.005859 L 40.398438 20.908203 z M 28.613281 21.003906 C 19.926281 21.003906 15.96875 26.959141 15.96875 32.494141 C 15.96875 36.551141 18.260562 38.403625 20.101562 39.890625 C 21.514563 41.031625 22.314453 41.733578 22.314453 42.892578 C 22.314453 42.942578 22.298375 44.111328 20.984375 44.111328 C 19.249375 44.111328 16.920922 42.444734 16.169922 41.802734 C 15.913922 41.584734 15.561281 41.506563 15.238281 41.601562 C 14.913281 41.694563 14.658547 41.944625 14.560547 42.265625 L 13.042969 47.230469 C 12.946969 47.545469 13.014656 47.886578 13.222656 48.142578 C 13.350656 48.299578 16.426906 52 22.503906 52 C 27.901906 52 31.671875 47.894531 31.671875 42.019531 C 31.671875 37.314531 28.493828 34.994781 26.173828 33.300781 C 25.009828 32.449781 23.908203 31.646375 23.908203 30.984375 C 23.908203 30.198375 24.367687 29.261719 26.554688 29.261719 C 28.589687 29.261719 30.353141 30.175594 30.369141 30.183594 C 30.630141 30.321594 30.937938 30.339469 31.210938 30.230469 C 31.483937 30.122469 31.696063 29.899094 31.789062 29.621094 L 33.949219 23.146484 C 34.097219 22.702484 33.912813 22.216516 33.507812 21.978516 C 33.330813 21.875516 31.699281 20.957906 28.613281 21.003906 z M 28.626953 22.988281 C 30.072953 22.972281 31.119766 23.197437 31.759766 23.398438 L 30.236328 27.966797 C 29.358328 27.643797 28.027687 27.271484 26.554688 27.271484 C 22.134688 27.271484 21.910156 30.363422 21.910156 30.982422 C 21.910156 32.649422 23.408188 33.741438 24.992188 34.898438 C 27.187188 36.500438 29.673828 38.317578 29.673828 42.017578 C 29.673828 46.800578 26.793859 50.013672 22.505859 50.013672 C 18.423859 50.013672 15.981047 48.083813 15.123047 47.257812 L 16.058594 44.203125 C 17.261594 45.020125 19.187328 46.097656 20.986328 46.097656 C 23.148328 46.097656 24.314453 44.445625 24.314453 42.890625 C 24.314453 40.729625 22.814281 39.517703 21.363281 38.345703 C 19.695281 36.997703 17.970703 35.603187 17.970703 32.492188 C 17.970703 27.761187 21.260953 22.988281 28.626953 22.988281 z M 40.160156 25.787109 C 39.618156 25.760109 39.140281 26.186281 39.113281 26.738281 C 39.086281 27.289281 39.512453 27.758156 40.064453 27.785156 L 42.0625 27.882812 C 42.0785 27.883813 42.094328 27.882812 42.111328 27.882812 C 42.641328 27.882812 43.083375 27.466641 43.109375 26.931641 C 43.136375 26.380641 42.710203 25.911766 42.158203 25.884766 L 40.160156 25.787109 z M 39.923828 30.664062 C 39.376828 30.645063 38.902953 31.064234 38.876953 31.615234 C 38.850953 32.166234 39.276125 32.635109 39.828125 32.662109 L 41.826172 32.759766 C 41.842172 32.760766 41.858 32.759766 41.875 32.759766 C 42.405 32.759766 42.848047 32.343594 42.873047 31.808594 C 42.899047 31.257594 42.473875 30.788719 41.921875 30.761719 L 39.923828 30.664062 z M 39.6875 35.541016 C 39.1365 35.514016 38.666625 35.940188 38.640625 36.492188 C 38.614625 37.043188 39.039797 37.512062 39.591797 37.539062 L 41.589844 37.636719 C 41.605844 37.637719 41.621672 37.636719 41.638672 37.636719 C 42.168672 37.636719 42.610719 37.221547 42.636719 36.685547 C 42.662719 36.134547 42.237547 35.665672 41.685547 35.638672 L 39.6875 35.541016 z M 39.451172 40.419922 C 38.895172 40.400922 38.431297 40.817141 38.404297 41.369141 C 38.378297 41.920141 38.803469 42.390969 39.355469 42.417969 L 41.353516 42.513672 C 41.369516 42.514672 41.385344 42.515625 41.402344 42.515625 C 41.932344 42.515625 42.374391 42.0975 42.400391 41.5625 C 42.426391 41.0115 42.001219 40.542625 41.449219 40.515625 L 39.451172 40.419922 z M 39.216797 45.296875 C 38.671797 45.269875 38.196922 45.694094 38.169922 46.246094 C 38.142922 46.797094 38.568141 47.267922 39.119141 47.294922 L 41.117188 47.390625 C 41.133187 47.391625 41.149016 47.392578 41.166016 47.392578 C 41.696016 47.392578 42.137062 46.976406 42.164062 46.441406 C 42.191062 45.889406 41.765844 45.419578 41.214844 45.392578 L 39.216797 45.296875 z M 38.978516 50.173828 C 38.430516 50.154828 37.957641 50.572047 37.931641 51.123047 C 37.905641 51.674047 38.330813 52.144875 38.882812 52.171875 L 40.880859 52.267578 C 40.896859 52.268578 40.912687 52.269531 40.929688 52.269531 C 41.458687 52.269531 41.901734 51.852406 41.927734 51.316406 C 41.953734 50.765406 41.528562 50.296531 40.976562 50.269531 L 38.978516 50.173828 z M 38.742188 55.050781 C 38.189188 55.023781 37.722313 55.449953 37.695312 56.001953 C 37.669312 56.552953 38.094484 57.021828 38.646484 57.048828 L 40.644531 57.144531 C 40.660531 57.145531 40.676359 57.146484 40.693359 57.146484 C 41.223359 57.146484 41.666406 56.729359 41.691406 56.193359 C 41.717406 55.642359 41.292234 55.173484 40.740234 55.146484 L 38.742188 55.050781 z"/></svg>